<?xml version="1.0" standalone="no"?>
<!DOCTYPE svg PUBLIC "-//W3C//DTD SVG 20010904//EN"
 "http://www.w3.org/TR/2001/REC-SVG-20010904/DTD/svg10.dtd">
<svg version="1.0" xmlns="http://www.w3.org/2000/svg"
 width="405.000000pt" height="321.000000pt" viewBox="0 0 405.000000 321.000000"
 preserveAspectRatio="xMidYMid meet">

<g transform="translate(0.000000,321.000000) scale(0.100000,-0.100000)"
fill="#000000" stroke="none">
<path d="M550 3154 c-58 -64 -101 -162 -103 -237 -2 -47 2 -62 16 -71 27 -17
51 5 60 55 4 24 10 50 12 57 3 7 44 -19 107 -70 142 -114 292 -239 296 -247 1
-4 -25 -43 -58 -86 -76 -101 -149 -242 -190 -367 l-32 -97 -131 -3 -132 -3 0
-40 0 -40 1600 0 1600 0 0 40 0 40 -131 3 -131 3 -32 97 c-46 136 -125 283
-211 392 -31 39 -32 42 -14 55 11 7 107 81 214 164 107 83 198 151 202 151 4
0 10 -21 14 -47 3 -27 11 -56 16 -65 12 -23 41 -23 62 1 35 39 -16 203 -94
300 -40 49 -65 59 -91 35 -26 -23 -24 -35 12 -80 l31 -39 -28 -20 c-15 -11
-113 -85 -218 -165 -105 -80 -197 -149 -203 -153 -8 -5 -39 15 -85 54 -248
214 -581 338 -906 339 -343 1 -710 -137 -939 -353 l-31 -29 -39 31 c-91 74
-379 294 -390 298 -9 4 -3 16 17 41 32 39 38 70 18 90 -22 22 -45 13 -88 -34z"/>
<path d="M430 1871 c-6 -12 -10 -101 -10 -221 0 -120 4 -209 10 -221 12 -22
68 -27 88 -7 7 7 12 43 12 90 0 69 2 78 19 78 11 0 42 -32 82 -85 63 -85 84
-100 130 -93 41 5 34 38 -26 118 l-55 74 32 33 c28 29 33 42 36 96 4 57 1 66
-23 95 -44 52 -72 62 -184 62 -89 0 -101 -2 -111 -19z m208 -93 c15 -15 15
-61 0 -76 -7 -7 -34 -12 -60 -12 l-48 0 0 50 0 50 48 0 c26 0 53 -5 60 -12z"/>
<path d="M875 1878 c-3 -8 -4 -115 -3 -238 l3 -225 150 0 150 0 3 33 c5 54 -9
62 -114 62 l-94 0 0 45 0 45 73 0 c80 0 97 9 97 50 0 41 -17 50 -97 50 l-73 0
0 45 0 45 94 0 c105 0 119 8 114 62 l-3 33 -148 3 c-114 2 -149 0 -152 -10z"/>
<path d="M1284 1877 c-2 -7 -3 -114 -2 -237 l3 -225 33 -3 c55 -5 63 10 61
107 -1 47 2 87 6 89 5 2 27 -41 51 -95 l43 -98 46 0 47 0 46 108 c26 59 49
107 52 107 3 0 4 -40 2 -89 -5 -111 5 -133 56 -129 l37 3 0 235 0 235 -35 3
c-19 2 -43 -3 -52 -10 -9 -7 -45 -76 -79 -153 -33 -77 -65 -144 -69 -148 -8
-9 -33 41 -97 193 -20 47 -43 93 -51 103 -18 20 -90 24 -98 4z"/>
<path d="M1902 1878 c-17 -17 -17 -439 0 -456 17 -17 279 -17 296 0 18 18 15
53 -6 71 -15 13 -39 17 -110 17 l-92 0 0 45 0 44 82 3 c80 3 83 4 92 31 18 49
0 62 -93 65 l-81 3 0 44 0 45 93 0 c100 0 127 12 127 56 0 39 -18 44 -160 44
-92 0 -140 -4 -148 -12z"/>
<path d="M2304 1877 c-2 -7 -3 -114 -2 -237 l3 -225 45 0 45 0 5 145 5 145
103 -148 c97 -138 105 -147 135 -147 18 0 38 5 45 12 9 9 12 74 12 229 0 239
-1 243 -62 237 l-33 -3 -5 -139 -5 -139 -79 114 c-109 157 -121 169 -168 169
-22 0 -41 -5 -44 -13z"/>
<path d="M2777 1883 c-17 -17 -1 -50 73 -151 l79 -108 3 -104 3 -105 33 -3
c55 -5 62 8 62 120 l0 99 80 106 c85 112 96 145 51 151 -46 7 -69 -8 -121 -78
-29 -38 -56 -70 -60 -70 -5 0 -23 19 -41 43 -65 84 -91 107 -124 107 -18 0
-35 -3 -38 -7z"/>
<path d="M3341 1877 c-10 -13 -54 -111 -148 -329 -25 -59 -43 -114 -40 -122 9
-22 70 -21 90 2 9 10 22 33 28 50 l11 32 98 0 98 0 12 -34 c15 -47 41 -68 81
-64 42 4 47 22 21 80 -11 24 -52 117 -92 208 -40 91 -77 171 -83 178 -13 16
-62 16 -76 -1z m67 -216 l20 -49 -41 -4 c-23 -3 -45 0 -49 5 -7 11 31 97 43
97 3 0 16 -22 27 -49z"/>
<path d="M394 1296 c-3 -8 -4 -27 -2 -43 l3 -28 257 -3 256 -2 11 -51 c6 -28
9 -55 6 -60 -12 -19 -264 -180 -305 -194 -56 -20 -121 -19 -158 2 -26 15 -32
15 -50 3 -12 -8 -100 -73 -196 -144 -172 -127 -175 -129 -186 -177 -15 -63 -6
-115 33 -180 37 -62 93 -99 150 -99 50 0 51 1 254 152 166 124 173 130 173
163 0 20 10 57 22 83 27 57 139 172 228 233 62 42 152 75 171 63 5 -3 9 -22 9
-42 0 -66 49 -212 116 -345 32 -63 109 -177 120 -177 2 0 27 11 54 25 27 14
53 25 58 25 5 0 37 -38 72 -85 66 -89 179 -198 290 -279 72 -53 190 -116 217
-116 25 0 125 54 203 108 87 61 261 231 316 309 25 35 49 63 55 63 5 0 32 -11
60 -25 27 -14 55 -23 60 -19 16 10 92 130 132 209 42 85 71 174 88 278 14 86
6 80 84 61 19 -5 25 -2 25 10 0 27 19 18 88 -41 175 -151 242 -241 242 -324 0
-35 5 -40 173 -166 194 -147 204 -153 247 -153 68 0 127 45 170 131 25 47 27
154 5 186 -8 11 -67 60 -132 109 -65 48 -148 111 -184 140 l-66 53 -42 -21
c-52 -25 -103 -19 -187 22 -77 39 -84 43 -181 123 -81 67 -89 79 -77 124 6 23
7 23 263 25 l256 3 3 43 3 42 -1601 0 c-1371 0 -1601 -2 -1606 -14z m1210
-145 c31 -37 78 -89 105 -114 l49 -46 -33 -45 c-43 -61 -121 -145 -192 -207
-69 -60 -170 -129 -189 -129 -16 0 -96 154 -119 231 -9 30 -20 68 -25 84 -5
17 -12 58 -15 92 l-6 62 38 20 c21 11 70 42 108 69 68 48 72 49 146 51 l77 1
56 -69z m1078 6 c51 -35 101 -68 112 -74 17 -9 17 -15 6 -84 -6 -41 -21 -105
-32 -144 -23 -82 -106 -245 -124 -245 -21 0 -135 80 -129 90 3 6 0 7 -7 5 -16
-6 -169 143 -234 226 l-43 56 70 69 c38 38 83 90 100 115 l30 47 79 1 79 1 93
-63z m-759 -277 c30 -16 61 -30 71 -30 10 0 44 15 77 33 l60 32 27 -35 c72
-93 149 -175 226 -240 l84 -72 -58 -77 c-32 -42 -93 -110 -137 -152 -86 -82
-240 -189 -273 -189 -78 0 -345 223 -451 376 l-28 42 72 59 c69 57 173 167
231 246 16 20 32 37 37 37 5 0 33 -13 62 -30z m1858 -160 c34 -18 88 -70 105
-102 8 -15 14 -46 14 -69 0 -40 -1 -41 -27 -34 -52 12 -96 58 -119 122 -12 33
-29 72 -39 86 l-17 26 30 -8 c16 -5 40 -14 53 -21z m-3511 -14 c-11 -19 -29
-58 -39 -87 -20 -60 -66 -105 -119 -115 -29 -6 -32 -4 -32 17 0 55 21 98 69
141 37 34 101 69 139 77 2 1 -6 -14 -18 -33z m3325 13 c22 -6 52 -20 68 -31
31 -22 67 -86 67 -119 0 -20 -4 -21 -52 -17 -45 5 -56 11 -85 44 -18 22 -49
57 -68 78 -19 22 -35 43 -35 48 0 11 58 10 105 -3z m-3132 -55 c-98 -118 -96
-116 -151 -122 -52 -5 -52 -4 -52 24 0 16 11 46 25 67 35 51 87 76 158 77 l58
0 -38 -46z m3368 -173 l44 -39 -29 -31 c-34 -35 -86 -42 -135 -17 -23 13 -101
89 -101 100 0 2 10 1 23 -1 13 -3 39 2 58 10 59 26 92 21 140 -22z m-3548 14
c20 -8 51 -15 69 -15 l32 0 -39 -40 c-69 -71 -147 -90 -199 -49 -35 28 -33 40
14 83 44 40 69 44 123 21z"/>
</g>
</svg>
